<mxfile host="65bd71144e">
    <diagram id="bdO_ZmlPBn13gSDUJsdo" name="工作流程">
        <mxGraphModel dx="625" dy="579" grid="1" gridSize="10" guides="1" tooltips="1" connect="1" arrows="1" fold="1" page="1" pageScale="1" pageWidth="827" pageHeight="1169" background="none" math="0" shadow="0">
            <root>
                <mxCell id="0"/>
                <mxCell id="1" parent="0"/>
                <mxCell id="27" value="" style="shape=table;startSize=0;container=1;collapsible=0;childLayout=tableLayout;strokeWidth=1;movable=0;resizable=0;rotatable=0;deletable=0;editable=0;connectable=0;" parent="1" vertex="1">
                    <mxGeometry x="200" width="850" height="760" as="geometry"/>
                </mxCell>
                <mxCell id="28" value="" style="shape=tableRow;horizontal=0;startSize=0;swimlaneHead=0;swimlaneBody=0;top=0;left=0;bottom=0;right=0;collapsible=0;dropTarget=0;fillColor=none;points=[[0,0.5],[1,0.5]];portConstraint=eastwest;movable=0;resizable=0;rotatable=0;deletable=0;editable=0;connectable=0;" parent="27" vertex="1">
                    <mxGeometry width="850" height="97" as="geometry"/>
                </mxCell>
                <mxCell id="29" value="&lt;b&gt;&lt;font style=&quot;font-size: 20px;&quot;&gt;流程&lt;/font&gt;&lt;/b&gt;" style="shape=partialRectangle;html=1;whiteSpace=wrap;connectable=0;overflow=hidden;fillColor=none;top=0;left=0;bottom=0;right=0;pointerEvents=1;movable=0;resizable=0;rotatable=0;deletable=0;editable=0;" parent="28" vertex="1">
                    <mxGeometry width="110" height="97" as="geometry">
                        <mxRectangle width="110" height="97" as="alternateBounds"/>
                    </mxGeometry>
                </mxCell>
                <mxCell id="30" value="&lt;font style=&quot;font-size: 20px;&quot;&gt;&lt;b&gt;内容&lt;/b&gt;&lt;/font&gt;" style="shape=partialRectangle;html=1;whiteSpace=wrap;connectable=0;overflow=hidden;fillColor=none;top=0;left=0;bottom=0;right=0;pointerEvents=1;movable=0;resizable=0;rotatable=0;deletable=0;editable=0;" parent="28" vertex="1">
                    <mxGeometry x="110" width="370" height="97" as="geometry">
                        <mxRectangle width="370" height="97" as="alternateBounds"/>
                    </mxGeometry>
                </mxCell>
                <mxCell id="110" value="&lt;b&gt;&lt;font style=&quot;font-size: 20px;&quot;&gt;注意事项&lt;/font&gt;&lt;/b&gt;" style="shape=partialRectangle;html=1;whiteSpace=wrap;connectable=0;overflow=hidden;fillColor=none;top=0;left=0;bottom=0;right=0;pointerEvents=1;movable=0;resizable=0;rotatable=0;deletable=0;editable=0;" parent="28" vertex="1">
                    <mxGeometry x="480" width="370" height="97" as="geometry">
                        <mxRectangle width="370" height="97" as="alternateBounds"/>
                    </mxGeometry>
                </mxCell>
                <mxCell id="33" value="" style="shape=tableRow;horizontal=0;startSize=0;swimlaneHead=0;swimlaneBody=0;top=0;left=0;bottom=0;right=0;collapsible=0;dropTarget=0;fillColor=none;points=[[0,0.5],[1,0.5]];portConstraint=eastwest;movable=0;resizable=0;rotatable=0;deletable=0;editable=0;connectable=0;" parent="27" vertex="1">
                    <mxGeometry y="97" width="850" height="95" as="geometry"/>
                </mxCell>
                <mxCell id="34" value="数据采集" style="shape=partialRectangle;html=1;whiteSpace=wrap;connectable=0;overflow=hidden;fillColor=#dae8fc;top=0;left=0;bottom=0;right=0;pointerEvents=1;strokeColor=#6c8ebf;movable=0;resizable=0;rotatable=0;deletable=0;editable=0;" parent="33" vertex="1">
                    <mxGeometry width="110" height="95" as="geometry">
                        <mxRectangle width="110" height="95" as="alternateBounds"/>
                    </mxGeometry>
                </mxCell>
                <mxCell id="35" value="&amp;nbsp; &amp;nbsp; &amp;nbsp; &amp;nbsp; 收集用于训练和测试的人脸图像数据集。" style="shape=partialRectangle;html=1;whiteSpace=wrap;connectable=0;overflow=hidden;fillColor=#dae8fc;top=0;left=0;bottom=0;right=0;pointerEvents=1;align=left;strokeColor=#000000;strokeWidth=1;movable=0;resizable=0;rotatable=0;deletable=0;editable=0;" parent="33" vertex="1">
                    <mxGeometry x="110" width="370" height="95" as="geometry">
                        <mxRectangle width="370" height="95" as="alternateBounds"/>
                    </mxGeometry>
                </mxCell>
                <mxCell id="111" style="shape=partialRectangle;html=1;whiteSpace=wrap;connectable=0;overflow=hidden;fillColor=#dae8fc;top=0;left=0;bottom=0;right=0;pointerEvents=1;align=left;strokeColor=#6c8ebf;movable=0;resizable=0;rotatable=0;deletable=0;editable=0;" parent="33" vertex="1">
                    <mxGeometry x="480" width="370" height="95" as="geometry">
                        <mxRectangle width="370" height="95" as="alternateBounds"/>
                    </mxGeometry>
                </mxCell>
                <mxCell id="38" value="" style="shape=tableRow;horizontal=0;startSize=0;swimlaneHead=0;swimlaneBody=0;top=0;left=0;bottom=0;right=0;collapsible=0;dropTarget=0;fillColor=#d5e8d4;points=[[0,0.5],[1,0.5]];portConstraint=eastwest;strokeColor=#82b366;movable=0;resizable=0;rotatable=0;deletable=0;editable=0;connectable=0;" parent="27" vertex="1">
                    <mxGeometry y="192" width="850" height="91" as="geometry"/>
                </mxCell>
                <mxCell id="39" value="数据预处理" style="shape=partialRectangle;html=1;whiteSpace=wrap;connectable=0;overflow=hidden;fillColor=none;top=0;left=0;bottom=0;right=0;pointerEvents=1;movable=0;resizable=0;rotatable=0;deletable=0;editable=0;" parent="38" vertex="1">
                    <mxGeometry width="110" height="91" as="geometry">
                        <mxRectangle width="110" height="91" as="alternateBounds"/>
                    </mxGeometry>
                </mxCell>
                <mxCell id="40" value="&amp;nbsp; &amp;nbsp; &amp;nbsp; &amp;nbsp; 对采集的人脸图像进行预处理，包括图像去噪、图像增强、人脸检测和对齐等操作。" style="shape=partialRectangle;html=1;whiteSpace=wrap;connectable=0;overflow=hidden;fillColor=none;top=0;left=0;bottom=0;right=0;pointerEvents=1;align=left;movable=0;resizable=0;rotatable=0;deletable=0;editable=0;" parent="38" vertex="1">
                    <mxGeometry x="110" width="370" height="91" as="geometry">
                        <mxRectangle width="370" height="91" as="alternateBounds"/>
                    </mxGeometry>
                </mxCell>
                <mxCell id="112" value="&lt;div style=&quot;&quot;&gt;&lt;span style=&quot;background-color: initial;&quot;&gt;&amp;nbsp; &amp;nbsp; &amp;nbsp; &amp;nbsp; 提高后续的人脸特征提取和匹配的准确性&lt;/span&gt;&lt;/div&gt;" style="shape=partialRectangle;html=1;whiteSpace=wrap;connectable=0;overflow=hidden;fillColor=#d5e8d4;top=0;left=0;bottom=0;right=0;pointerEvents=1;align=left;strokeColor=#82b366;movable=0;resizable=0;rotatable=0;deletable=0;editable=0;" parent="38" vertex="1">
                    <mxGeometry x="480" width="370" height="91" as="geometry">
                        <mxRectangle width="370" height="91" as="alternateBounds"/>
                    </mxGeometry>
                </mxCell>
                <mxCell id="43" value="" style="shape=tableRow;horizontal=0;startSize=0;swimlaneHead=0;swimlaneBody=0;top=0;left=0;bottom=0;right=0;collapsible=0;dropTarget=0;fillColor=none;points=[[0,0.5],[1,0.5]];portConstraint=eastwest;movable=0;resizable=0;rotatable=0;deletable=0;editable=0;connectable=0;" parent="27" vertex="1">
                    <mxGeometry y="283" width="850" height="97" as="geometry"/>
                </mxCell>
                <mxCell id="44" value="特征提取" style="shape=partialRectangle;html=1;whiteSpace=wrap;connectable=0;overflow=hidden;fillColor=#ffe6cc;top=0;left=0;bottom=0;right=0;pointerEvents=1;strokeColor=#d79b00;movable=0;resizable=0;rotatable=0;deletable=0;editable=0;" parent="43" vertex="1">
                    <mxGeometry width="110" height="97" as="geometry">
                        <mxRectangle width="110" height="97" as="alternateBounds"/>
                    </mxGeometry>
                </mxCell>
                <mxCell id="45" value="&amp;nbsp; &amp;nbsp; &amp;nbsp; &amp;nbsp; 使用特征提取算法（如局部二值模式、主成分分析、人脸关键点检测等）从预处理后的图像中提取人脸的特征向量。" style="shape=partialRectangle;html=1;whiteSpace=wrap;connectable=0;overflow=hidden;fillColor=#ffe6cc;top=0;left=0;bottom=0;right=0;pointerEvents=1;align=left;strokeColor=#d79b00;movable=0;resizable=0;rotatable=0;deletable=0;editable=0;" parent="43" vertex="1">
                    <mxGeometry x="110" width="370" height="97" as="geometry">
                        <mxRectangle width="370" height="97" as="alternateBounds"/>
                    </mxGeometry>
                </mxCell>
                <mxCell id="113" value="&amp;nbsp; &amp;nbsp; &amp;nbsp; &amp;nbsp; 这些特征向量通常是高维的数值表示，用于描述人脸的唯一特征。" style="shape=partialRectangle;html=1;whiteSpace=wrap;connectable=0;overflow=hidden;fillColor=#ffe6cc;top=0;left=0;bottom=0;right=0;pointerEvents=1;align=left;strokeColor=#d79b00;movable=0;resizable=0;rotatable=0;deletable=0;editable=0;" parent="43" vertex="1">
                    <mxGeometry x="480" width="370" height="97" as="geometry">
                        <mxRectangle width="370" height="97" as="alternateBounds"/>
                    </mxGeometry>
                </mxCell>
                <mxCell id="48" value="" style="shape=tableRow;horizontal=0;startSize=0;swimlaneHead=0;swimlaneBody=0;top=0;left=0;bottom=0;right=0;collapsible=0;dropTarget=0;fillColor=none;points=[[0,0.5],[1,0.5]];portConstraint=eastwest;movable=0;resizable=0;rotatable=0;deletable=0;editable=0;connectable=0;" parent="27" vertex="1">
                    <mxGeometry y="380" width="850" height="97" as="geometry"/>
                </mxCell>
                <mxCell id="49" value="特征匹配" style="shape=partialRectangle;html=1;whiteSpace=wrap;connectable=0;overflow=hidden;fillColor=#fff2cc;top=0;left=0;bottom=0;right=0;pointerEvents=1;strokeColor=#d6b656;movable=0;resizable=0;rotatable=0;deletable=0;editable=0;" parent="48" vertex="1">
                    <mxGeometry width="110" height="97" as="geometry">
                        <mxRectangle width="110" height="97" as="alternateBounds"/>
                    </mxGeometry>
                </mxCell>
                <mxCell id="114" value="&amp;nbsp; &amp;nbsp; &amp;nbsp; &amp;nbsp; 将提取到的人脸特征向量与已知的人脸特征数据库中的特征向量进行比对，找出最相似的匹配结果。" style="shape=partialRectangle;html=1;whiteSpace=wrap;connectable=0;overflow=hidden;fillColor=#fff2cc;top=0;left=0;bottom=0;right=0;pointerEvents=1;align=left;strokeColor=#d6b656;movable=0;resizable=0;rotatable=0;deletable=0;editable=0;" parent="48" vertex="1">
                    <mxGeometry x="110" width="370" height="97" as="geometry">
                        <mxRectangle width="370" height="97" as="alternateBounds"/>
                    </mxGeometry>
                </mxCell>
                <mxCell id="50" value="&amp;nbsp; &amp;nbsp; &amp;nbsp; &amp;nbsp; 常用的匹配算法包括欧氏距离、余弦相似度等。" style="shape=partialRectangle;html=1;whiteSpace=wrap;connectable=0;overflow=hidden;fillColor=#fff2cc;top=0;left=0;bottom=0;right=0;pointerEvents=1;align=left;strokeColor=#d6b656;movable=0;resizable=0;rotatable=0;deletable=0;editable=0;" parent="48" vertex="1">
                    <mxGeometry x="480" width="370" height="97" as="geometry">
                        <mxRectangle width="370" height="97" as="alternateBounds"/>
                    </mxGeometry>
                </mxCell>
                <mxCell id="53" value="" style="shape=tableRow;horizontal=0;startSize=0;swimlaneHead=0;swimlaneBody=0;top=0;left=0;bottom=0;right=0;collapsible=0;dropTarget=0;fillColor=none;points=[[0,0.5],[1,0.5]];portConstraint=eastwest;movable=0;resizable=0;rotatable=0;deletable=0;editable=0;connectable=0;" parent="27" vertex="1">
                    <mxGeometry y="477" width="850" height="95" as="geometry"/>
                </mxCell>
                <mxCell id="54" value="决策与输出" style="shape=partialRectangle;html=1;whiteSpace=wrap;connectable=0;overflow=hidden;fillColor=#f8cecc;top=0;left=0;bottom=0;right=0;pointerEvents=1;strokeColor=#b85450;movable=0;resizable=0;rotatable=0;deletable=0;editable=0;" parent="53" vertex="1">
                    <mxGeometry width="110" height="95" as="geometry">
                        <mxRectangle width="110" height="95" as="alternateBounds"/>
                    </mxGeometry>
                </mxCell>
                <mxCell id="55" value="&amp;nbsp; &amp;nbsp; &amp;nbsp; &amp;nbsp; 根据匹配结果进行决策，判断是否为已知人脸，并输出相应的识别结果。" style="shape=partialRectangle;html=1;whiteSpace=wrap;connectable=0;overflow=hidden;fillColor=#f8cecc;top=0;left=0;bottom=0;right=0;pointerEvents=1;align=left;strokeColor=#b85450;movable=0;resizable=0;rotatable=0;deletable=0;editable=0;" parent="53" vertex="1">
                    <mxGeometry x="110" width="370" height="95" as="geometry">
                        <mxRectangle width="370" height="95" as="alternateBounds"/>
                    </mxGeometry>
                </mxCell>
                <mxCell id="115" value="&amp;nbsp; &amp;nbsp; &amp;nbsp; &amp;nbsp; 可以设置一个阈值，当匹配分数超过阈值时，认为是已知人脸，否则为未知人脸。" style="shape=partialRectangle;html=1;whiteSpace=wrap;connectable=0;overflow=hidden;fillColor=#f8cecc;top=0;left=0;bottom=0;right=0;pointerEvents=1;align=left;strokeColor=#b85450;movable=0;resizable=0;rotatable=0;deletable=0;editable=0;" parent="53" vertex="1">
                    <mxGeometry x="480" width="370" height="95" as="geometry">
                        <mxRectangle width="370" height="95" as="alternateBounds"/>
                    </mxGeometry>
                </mxCell>
                <mxCell id="58" value="" style="shape=tableRow;horizontal=0;startSize=0;swimlaneHead=0;swimlaneBody=0;top=0;left=0;bottom=0;right=0;collapsible=0;dropTarget=0;fillColor=none;points=[[0,0.5],[1,0.5]];portConstraint=eastwest;movable=0;resizable=0;rotatable=0;deletable=0;editable=0;connectable=0;" parent="27" vertex="1">
                    <mxGeometry y="572" width="850" height="91" as="geometry"/>
                </mxCell>
                <mxCell id="59" value="系统优化" style="shape=partialRectangle;html=1;whiteSpace=wrap;connectable=0;overflow=hidden;fillColor=#e1d5e7;top=0;left=0;bottom=0;right=0;pointerEvents=1;strokeColor=#9673a6;movable=0;resizable=0;rotatable=0;deletable=0;editable=0;" parent="58" vertex="1">
                    <mxGeometry width="110" height="91" as="geometry">
                        <mxRectangle width="110" height="91" as="alternateBounds"/>
                    </mxGeometry>
                </mxCell>
                <mxCell id="60" value="&amp;nbsp; &amp;nbsp; &amp;nbsp; &amp;nbsp; 对整个人脸识别系统进行优化，包括算法优化、硬件加速灯。" style="shape=partialRectangle;html=1;whiteSpace=wrap;connectable=0;overflow=hidden;fillColor=#e1d5e7;top=0;left=0;bottom=0;right=0;pointerEvents=1;align=left;strokeColor=#9673a6;movable=0;resizable=0;rotatable=0;deletable=0;editable=0;" parent="58" vertex="1">
                    <mxGeometry x="110" width="370" height="91" as="geometry">
                        <mxRectangle width="370" height="91" as="alternateBounds"/>
                    </mxGeometry>
                </mxCell>
                <mxCell id="116" value="&amp;nbsp; &amp;nbsp; &amp;nbsp; &amp;nbsp; 使用GPU或FPGA等硬件加速技术来提高系统的实时性能和处理能力。" style="shape=partialRectangle;html=1;whiteSpace=wrap;connectable=0;overflow=hidden;fillColor=#e1d5e7;top=0;left=0;bottom=0;right=0;pointerEvents=1;align=left;strokeColor=#9673a6;movable=0;resizable=0;rotatable=0;deletable=0;editable=0;" parent="58" vertex="1">
                    <mxGeometry x="480" width="370" height="91" as="geometry">
                        <mxRectangle width="370" height="91" as="alternateBounds"/>
                    </mxGeometry>
                </mxCell>
                <mxCell id="104" style="shape=tableRow;horizontal=0;startSize=0;swimlaneHead=0;swimlaneBody=0;top=0;left=0;bottom=0;right=0;collapsible=0;dropTarget=0;fillColor=none;points=[[0,0.5],[1,0.5]];portConstraint=eastwest;movable=0;resizable=0;rotatable=0;deletable=0;editable=0;connectable=0;" parent="27" vertex="1">
                    <mxGeometry y="663" width="850" height="97" as="geometry"/>
                </mxCell>
                <mxCell id="105" value="持续训练和更新" style="shape=partialRectangle;html=1;whiteSpace=wrap;connectable=0;overflow=hidden;fillColor=#f5f5f5;top=0;left=0;bottom=0;right=0;pointerEvents=1;fontColor=#333333;strokeColor=#666666;movable=0;resizable=0;rotatable=0;deletable=0;editable=0;" parent="104" vertex="1">
                    <mxGeometry width="110" height="97" as="geometry">
                        <mxRectangle width="110" height="97" as="alternateBounds"/>
                    </mxGeometry>
                </mxCell>
                <mxCell id="106" value="&amp;nbsp; &amp;nbsp; &amp;nbsp; &amp;nbsp; 定期使用新的数据对人脸识别系统进行训练和更新，以提高系统的准确性和鲁棒性。" style="shape=partialRectangle;html=1;whiteSpace=wrap;connectable=0;overflow=hidden;fillColor=#f5f5f5;top=0;left=0;bottom=0;right=0;pointerEvents=1;align=left;fontColor=#333333;strokeColor=#666666;movable=0;resizable=0;rotatable=0;deletable=0;editable=0;" parent="104" vertex="1">
                    <mxGeometry x="110" width="370" height="97" as="geometry">
                        <mxRectangle width="370" height="97" as="alternateBounds"/>
                    </mxGeometry>
                </mxCell>
                <mxCell id="117" value="&amp;nbsp; &amp;nbsp; &amp;nbsp; &amp;nbsp; 可以使用增量学习技术来逐步更新已有的人脸特征数据库" style="shape=partialRectangle;html=1;whiteSpace=wrap;connectable=0;overflow=hidden;fillColor=#f5f5f5;top=0;left=0;bottom=0;right=0;pointerEvents=1;align=left;fontColor=#333333;strokeColor=#666666;movable=0;resizable=0;rotatable=0;deletable=0;editable=0;" parent="104" vertex="1">
                    <mxGeometry x="480" width="370" height="97" as="geometry">
                        <mxRectangle width="370" height="97" as="alternateBounds"/>
                    </mxGeometry>
                </mxCell>
                <mxCell id="118" value="" style="group;movable=0;resizable=0;rotatable=0;deletable=0;editable=0;connectable=0;" parent="1" vertex="1" connectable="0">
                    <mxGeometry x="50" y="120" width="110" height="440" as="geometry"/>
                </mxCell>
                <mxCell id="2" value="数据采集" style="rounded=0;whiteSpace=wrap;html=1;movable=0;resizable=0;rotatable=0;deletable=0;editable=0;connectable=0;" parent="118" vertex="1">
                    <mxGeometry width="110" height="40" as="geometry"/>
                </mxCell>
                <mxCell id="3" value="数据预处理" style="rounded=0;whiteSpace=wrap;html=1;movable=0;resizable=0;rotatable=0;deletable=0;editable=0;connectable=0;" parent="118" vertex="1">
                    <mxGeometry y="100" width="110" height="40" as="geometry"/>
                </mxCell>
                <mxCell id="4" value="" style="edgeStyle=none;html=1;movable=0;resizable=0;rotatable=0;deletable=0;editable=0;connectable=0;" parent="118" source="2" target="3" edge="1">
                    <mxGeometry relative="1" as="geometry"/>
                </mxCell>
                <mxCell id="5" value="特征提取" style="rounded=0;whiteSpace=wrap;html=1;movable=0;resizable=0;rotatable=0;deletable=0;editable=0;connectable=0;" parent="118" vertex="1">
                    <mxGeometry y="200" width="110" height="40" as="geometry"/>
                </mxCell>
                <mxCell id="6" value="" style="edgeStyle=none;html=1;movable=0;resizable=0;rotatable=0;deletable=0;editable=0;connectable=0;" parent="118" source="3" target="5" edge="1">
                    <mxGeometry relative="1" as="geometry"/>
                </mxCell>
                <mxCell id="7" value="特征匹配" style="rounded=0;whiteSpace=wrap;html=1;movable=0;resizable=0;rotatable=0;deletable=0;editable=0;connectable=0;" parent="118" vertex="1">
                    <mxGeometry y="300" width="110" height="40" as="geometry"/>
                </mxCell>
                <mxCell id="8" value="" style="edgeStyle=none;html=1;movable=0;resizable=0;rotatable=0;deletable=0;editable=0;connectable=0;" parent="118" source="5" target="7" edge="1">
                    <mxGeometry relative="1" as="geometry"/>
                </mxCell>
                <mxCell id="9" value="决策与输出" style="rounded=0;whiteSpace=wrap;html=1;movable=0;resizable=0;rotatable=0;deletable=0;editable=0;connectable=0;" parent="118" vertex="1">
                    <mxGeometry y="400" width="110" height="40" as="geometry"/>
                </mxCell>
                <mxCell id="10" value="" style="edgeStyle=none;html=1;movable=0;resizable=0;rotatable=0;deletable=0;editable=0;connectable=0;" parent="118" source="7" target="9" edge="1">
                    <mxGeometry relative="1" as="geometry"/>
                </mxCell>
                <mxCell id="119" value="" style="endArrow=classic;html=1;entryX=0;entryY=0.453;entryDx=0;entryDy=0;entryPerimeter=0;movable=0;resizable=0;rotatable=0;deletable=0;editable=0;connectable=0;" parent="1" target="33" edge="1">
                    <mxGeometry width="50" height="50" relative="1" as="geometry">
                        <mxPoint x="160" y="140" as="sourcePoint"/>
                        <mxPoint x="210" y="90" as="targetPoint"/>
                    </mxGeometry>
                </mxCell>
                <mxCell id="120" value="" style="endArrow=classic;html=1;entryX=0;entryY=0.453;entryDx=0;entryDy=0;entryPerimeter=0;movable=0;resizable=0;rotatable=0;deletable=0;editable=0;connectable=0;" parent="1" edge="1">
                    <mxGeometry width="50" height="50" relative="1" as="geometry">
                        <mxPoint x="160" y="240" as="sourcePoint"/>
                        <mxPoint x="200" y="240.03500000000003" as="targetPoint"/>
                    </mxGeometry>
                </mxCell>
                <mxCell id="121" value="" style="endArrow=classic;html=1;entryX=0;entryY=0.453;entryDx=0;entryDy=0;entryPerimeter=0;movable=0;resizable=0;rotatable=0;deletable=0;editable=0;connectable=0;" parent="1" edge="1">
                    <mxGeometry width="50" height="50" relative="1" as="geometry">
                        <mxPoint x="160" y="339.83000000000004" as="sourcePoint"/>
                        <mxPoint x="200" y="339.865" as="targetPoint"/>
                    </mxGeometry>
                </mxCell>
                <mxCell id="122" value="" style="endArrow=classic;html=1;entryX=0;entryY=0.453;entryDx=0;entryDy=0;entryPerimeter=0;movable=0;resizable=0;rotatable=0;deletable=0;editable=0;connectable=0;" parent="1" edge="1">
                    <mxGeometry width="50" height="50" relative="1" as="geometry">
                        <mxPoint x="160" y="440.00000000000006" as="sourcePoint"/>
                        <mxPoint x="200" y="440.035" as="targetPoint"/>
                    </mxGeometry>
                </mxCell>
                <mxCell id="123" value="" style="endArrow=classic;html=1;entryX=0;entryY=0.453;entryDx=0;entryDy=0;entryPerimeter=0;movable=0;resizable=0;rotatable=0;deletable=0;editable=0;connectable=0;" parent="1" edge="1">
                    <mxGeometry width="50" height="50" relative="1" as="geometry">
                        <mxPoint x="160" y="540" as="sourcePoint"/>
                        <mxPoint x="200" y="540.0350000000001" as="targetPoint"/>
                    </mxGeometry>
                </mxCell>
            </root>
        </mxGraphModel>
    </diagram>
    <diagram id="_R_lV9YsVLnfF47VZvS_" name="原理图">
        <mxGraphModel dx="625" dy="579" grid="1" gridSize="10" guides="1" tooltips="1" connect="1" arrows="1" fold="1" page="1" pageScale="1" pageWidth="827" pageHeight="1169" math="0" shadow="0">
            <root>
                <mxCell id="0"/>
                <mxCell id="1" parent="0"/>
                <mxCell id="PQQZRL-Dx55m8A6esvLJ-10" value="" style="group;movable=0;resizable=0;rotatable=0;deletable=0;editable=0;connectable=0;" parent="1" vertex="1" connectable="0">
                    <mxGeometry x="40" width="680" height="440" as="geometry"/>
                </mxCell>
                <mxCell id="rX7PMhzwUXEM9qm4jWY1-40" value="" style="rounded=0;whiteSpace=wrap;html=1;strokeColor=#d6b656;fontFamily=Helvetica;fontSize=12;fillColor=#fff2cc;" parent="PQQZRL-Dx55m8A6esvLJ-10" vertex="1">
                    <mxGeometry x="160" width="400" height="400" as="geometry"/>
                </mxCell>
                <mxCell id="rX7PMhzwUXEM9qm4jWY1-1" value="OV5640" style="rounded=0;whiteSpace=wrap;html=1;fillColor=#d5e8d4;strokeColor=#82b366;" parent="PQQZRL-Dx55m8A6esvLJ-10" vertex="1">
                    <mxGeometry y="160" width="80" height="40" as="geometry"/>
                </mxCell>
                <mxCell id="rX7PMhzwUXEM9qm4jWY1-2" value="OV5640驱动" style="rounded=0;whiteSpace=wrap;html=1;" parent="PQQZRL-Dx55m8A6esvLJ-10" vertex="1">
                    <mxGeometry x="200" y="160" width="80" height="40" as="geometry"/>
                </mxCell>
                <mxCell id="rX7PMhzwUXEM9qm4jWY1-4" value="" style="endArrow=classic;startArrow=classic;html=1;fontFamily=Helvetica;fontSize=12;fontColor=default;entryX=0;entryY=0.25;entryDx=0;entryDy=0;exitX=1;exitY=0.25;exitDx=0;exitDy=0;" parent="PQQZRL-Dx55m8A6esvLJ-10" source="rX7PMhzwUXEM9qm4jWY1-1" target="rX7PMhzwUXEM9qm4jWY1-2" edge="1">
                    <mxGeometry width="50" height="50" relative="1" as="geometry">
                        <mxPoint x="130" y="210" as="sourcePoint"/>
                        <mxPoint x="180" y="160" as="targetPoint"/>
                    </mxGeometry>
                </mxCell>
                <mxCell id="rX7PMhzwUXEM9qm4jWY1-5" value="IIC配置" style="edgeLabel;html=1;align=center;verticalAlign=middle;resizable=0;points=[];fontSize=12;fontFamily=Helvetica;fontColor=default;" parent="rX7PMhzwUXEM9qm4jWY1-4" vertex="1" connectable="0">
                    <mxGeometry x="0.1696" y="1" relative="1" as="geometry">
                        <mxPoint x="-7" as="offset"/>
                    </mxGeometry>
                </mxCell>
                <mxCell id="rX7PMhzwUXEM9qm4jWY1-6" value="" style="endArrow=classic;html=1;fontFamily=Helvetica;fontSize=12;fontColor=default;exitX=1;exitY=0.75;exitDx=0;exitDy=0;entryX=0;entryY=0.75;entryDx=0;entryDy=0;" parent="PQQZRL-Dx55m8A6esvLJ-10" source="rX7PMhzwUXEM9qm4jWY1-1" target="rX7PMhzwUXEM9qm4jWY1-2" edge="1">
                    <mxGeometry width="50" height="50" relative="1" as="geometry">
                        <mxPoint x="150" y="240" as="sourcePoint"/>
                        <mxPoint x="170" y="210" as="targetPoint"/>
                    </mxGeometry>
                </mxCell>
                <mxCell id="rX7PMhzwUXEM9qm4jWY1-7" value="图像数据" style="edgeLabel;html=1;align=center;verticalAlign=middle;resizable=0;points=[];fontSize=12;fontFamily=Helvetica;fontColor=default;" parent="rX7PMhzwUXEM9qm4jWY1-6" vertex="1" connectable="0">
                    <mxGeometry x="0.2101" y="1" relative="1" as="geometry">
                        <mxPoint x="-9" as="offset"/>
                    </mxGeometry>
                </mxCell>
                <mxCell id="rX7PMhzwUXEM9qm4jWY1-8" value="时钟模块" style="rounded=0;whiteSpace=wrap;html=1;" parent="PQQZRL-Dx55m8A6esvLJ-10" vertex="1">
                    <mxGeometry x="320" y="40" width="80" height="40" as="geometry"/>
                </mxCell>
                <mxCell id="rX7PMhzwUXEM9qm4jWY1-10" value="" style="endArrow=classic;html=1;fontFamily=Helvetica;fontSize=12;fontColor=default;entryX=0.5;entryY=0;entryDx=0;entryDy=0;fillColor=#dae8fc;strokeColor=#6c8ebf;" parent="PQQZRL-Dx55m8A6esvLJ-10" target="rX7PMhzwUXEM9qm4jWY1-2" edge="1">
                    <mxGeometry width="50" height="50" relative="1" as="geometry">
                        <mxPoint x="240" y="120" as="sourcePoint"/>
                        <mxPoint x="290" y="90" as="targetPoint"/>
                    </mxGeometry>
                </mxCell>
                <mxCell id="rX7PMhzwUXEM9qm4jWY1-11" value="图像分辨率设置模块" style="rounded=0;whiteSpace=wrap;html=1;" parent="PQQZRL-Dx55m8A6esvLJ-10" vertex="1">
                    <mxGeometry x="200" y="320" width="80" height="40" as="geometry"/>
                </mxCell>
                <mxCell id="rX7PMhzwUXEM9qm4jWY1-13" value="" style="endArrow=classic;html=1;fontFamily=Helvetica;fontSize=12;fontColor=default;entryX=0.25;entryY=1;entryDx=0;entryDy=0;exitX=0.25;exitY=0;exitDx=0;exitDy=0;" parent="PQQZRL-Dx55m8A6esvLJ-10" source="rX7PMhzwUXEM9qm4jWY1-11" target="rX7PMhzwUXEM9qm4jWY1-2" edge="1">
                    <mxGeometry width="50" height="50" relative="1" as="geometry">
                        <mxPoint x="180" y="440" as="sourcePoint"/>
                        <mxPoint x="230" y="390" as="targetPoint"/>
                    </mxGeometry>
                </mxCell>
                <mxCell id="rX7PMhzwUXEM9qm4jWY1-14" value="DDR3控制器" style="rounded=0;whiteSpace=wrap;html=1;" parent="PQQZRL-Dx55m8A6esvLJ-10" vertex="1">
                    <mxGeometry x="440" y="320" width="80" height="40" as="geometry"/>
                </mxCell>
                <mxCell id="rX7PMhzwUXEM9qm4jWY1-17" value="" style="endArrow=none;html=1;fontFamily=Helvetica;fontSize=12;fontColor=default;entryX=0.25;entryY=1;entryDx=0;entryDy=0;strokeColor=#6c8ebf;fillColor=#dae8fc;" parent="PQQZRL-Dx55m8A6esvLJ-10" target="rX7PMhzwUXEM9qm4jWY1-8" edge="1">
                    <mxGeometry width="50" height="50" relative="1" as="geometry">
                        <mxPoint x="340" y="330" as="sourcePoint"/>
                        <mxPoint x="390" y="110" as="targetPoint"/>
                    </mxGeometry>
                </mxCell>
                <mxCell id="rX7PMhzwUXEM9qm4jWY1-29" value="50M" style="edgeLabel;html=1;align=center;verticalAlign=middle;resizable=0;points=[];fontSize=12;fontFamily=Helvetica;fontColor=#004C99;" parent="rX7PMhzwUXEM9qm4jWY1-17" vertex="1" connectable="0">
                    <mxGeometry x="0.8304" relative="1" as="geometry">
                        <mxPoint y="22" as="offset"/>
                    </mxGeometry>
                </mxCell>
                <mxCell id="rX7PMhzwUXEM9qm4jWY1-18" value="" style="endArrow=none;html=1;fontFamily=Helvetica;fontSize=12;fontColor=default;fillColor=#dae8fc;strokeColor=#6c8ebf;" parent="PQQZRL-Dx55m8A6esvLJ-10" edge="1">
                    <mxGeometry width="50" height="50" relative="1" as="geometry">
                        <mxPoint x="240" y="120" as="sourcePoint"/>
                        <mxPoint x="340" y="120" as="targetPoint"/>
                    </mxGeometry>
                </mxCell>
                <mxCell id="rX7PMhzwUXEM9qm4jWY1-19" value="" style="endArrow=classic;html=1;fontFamily=Helvetica;fontSize=12;fontColor=default;exitX=1;exitY=0.75;exitDx=0;exitDy=0;entryX=0;entryY=0.75;entryDx=0;entryDy=0;" parent="PQQZRL-Dx55m8A6esvLJ-10" source="rX7PMhzwUXEM9qm4jWY1-11" target="rX7PMhzwUXEM9qm4jWY1-14" edge="1">
                    <mxGeometry width="50" height="50" relative="1" as="geometry">
                        <mxPoint x="290" y="380" as="sourcePoint"/>
                        <mxPoint x="340" y="330" as="targetPoint"/>
                    </mxGeometry>
                </mxCell>
                <mxCell id="rX7PMhzwUXEM9qm4jWY1-26" value="分辨率" style="edgeLabel;html=1;align=center;verticalAlign=middle;resizable=0;points=[];fontSize=12;fontFamily=Helvetica;fontColor=default;" parent="rX7PMhzwUXEM9qm4jWY1-19" vertex="1" connectable="0">
                    <mxGeometry x="-0.1039" y="-1" relative="1" as="geometry">
                        <mxPoint as="offset"/>
                    </mxGeometry>
                </mxCell>
                <mxCell id="rX7PMhzwUXEM9qm4jWY1-20" value="" style="endArrow=classic;html=1;fontFamily=Helvetica;fontSize=12;fontColor=default;entryX=0;entryY=0.5;entryDx=0;entryDy=0;" parent="PQQZRL-Dx55m8A6esvLJ-10" target="rX7PMhzwUXEM9qm4jWY1-14" edge="1">
                    <mxGeometry width="50" height="50" relative="1" as="geometry">
                        <mxPoint x="300" y="340" as="sourcePoint"/>
                        <mxPoint x="360" y="200" as="targetPoint"/>
                    </mxGeometry>
                </mxCell>
                <mxCell id="rX7PMhzwUXEM9qm4jWY1-23" value="DDR3" style="rounded=0;whiteSpace=wrap;html=1;fillColor=#d5e8d4;strokeColor=#82b366;" parent="PQQZRL-Dx55m8A6esvLJ-10" vertex="1">
                    <mxGeometry x="440" y="400" width="80" height="40" as="geometry"/>
                </mxCell>
                <mxCell id="rX7PMhzwUXEM9qm4jWY1-24" value="" style="edgeStyle=none;html=1;fontFamily=Helvetica;fontSize=12;fontColor=default;exitX=0.75;exitY=1;exitDx=0;exitDy=0;entryX=0.75;entryY=0;entryDx=0;entryDy=0;" parent="PQQZRL-Dx55m8A6esvLJ-10" source="rX7PMhzwUXEM9qm4jWY1-14" target="rX7PMhzwUXEM9qm4jWY1-23" edge="1">
                    <mxGeometry relative="1" as="geometry"/>
                </mxCell>
                <mxCell id="rX7PMhzwUXEM9qm4jWY1-25" value="" style="endArrow=classic;html=1;fontFamily=Helvetica;fontSize=12;fontColor=default;entryX=0.25;entryY=1;entryDx=0;entryDy=0;exitX=0.25;exitY=0;exitDx=0;exitDy=0;" parent="PQQZRL-Dx55m8A6esvLJ-10" source="rX7PMhzwUXEM9qm4jWY1-23" target="rX7PMhzwUXEM9qm4jWY1-14" edge="1">
                    <mxGeometry width="50" height="50" relative="1" as="geometry">
                        <mxPoint x="430" y="410" as="sourcePoint"/>
                        <mxPoint x="480" y="360" as="targetPoint"/>
                    </mxGeometry>
                </mxCell>
                <mxCell id="rX7PMhzwUXEM9qm4jWY1-28" value="" style="endArrow=classic;html=1;fontFamily=Helvetica;fontSize=12;fontColor=default;entryX=1;entryY=0.25;entryDx=0;entryDy=0;fillColor=#dae8fc;strokeColor=#6c8ebf;" parent="PQQZRL-Dx55m8A6esvLJ-10" target="rX7PMhzwUXEM9qm4jWY1-11" edge="1">
                    <mxGeometry width="50" height="50" relative="1" as="geometry">
                        <mxPoint x="340" y="330" as="sourcePoint"/>
                        <mxPoint x="340" y="280" as="targetPoint"/>
                    </mxGeometry>
                </mxCell>
                <mxCell id="rX7PMhzwUXEM9qm4jWY1-31" value="" style="endArrow=none;html=1;fontFamily=Helvetica;fontSize=12;fontColor=default;entryX=0.75;entryY=1;entryDx=0;entryDy=0;fillColor=#f8cecc;strokeColor=#b85450;exitX=0.55;exitY=0.825;exitDx=0;exitDy=0;exitPerimeter=0;" parent="PQQZRL-Dx55m8A6esvLJ-10" source="rX7PMhzwUXEM9qm4jWY1-40" target="rX7PMhzwUXEM9qm4jWY1-8" edge="1">
                    <mxGeometry width="50" height="50" relative="1" as="geometry">
                        <mxPoint x="380" y="290" as="sourcePoint"/>
                        <mxPoint x="420" y="130" as="targetPoint"/>
                    </mxGeometry>
                </mxCell>
                <mxCell id="rX7PMhzwUXEM9qm4jWY1-33" value="&lt;font color=&quot;#ffb366&quot;&gt;200M&lt;/font&gt;" style="edgeLabel;html=1;align=center;verticalAlign=middle;resizable=0;points=[];fontSize=12;fontFamily=Helvetica;fontColor=default;" parent="rX7PMhzwUXEM9qm4jWY1-31" vertex="1" connectable="0">
                    <mxGeometry x="0.259" y="-1" relative="1" as="geometry">
                        <mxPoint as="offset"/>
                    </mxGeometry>
                </mxCell>
                <mxCell id="rX7PMhzwUXEM9qm4jWY1-32" value="" style="endArrow=classic;html=1;fontFamily=Helvetica;fontSize=12;fontColor=default;entryX=0;entryY=0.25;entryDx=0;entryDy=0;fillColor=#f8cecc;strokeColor=#b85450;exitX=0.55;exitY=0.825;exitDx=0;exitDy=0;exitPerimeter=0;" parent="PQQZRL-Dx55m8A6esvLJ-10" source="rX7PMhzwUXEM9qm4jWY1-40" target="rX7PMhzwUXEM9qm4jWY1-14" edge="1">
                    <mxGeometry width="50" height="50" relative="1" as="geometry">
                        <mxPoint x="380" y="290" as="sourcePoint"/>
                        <mxPoint x="460" y="240" as="targetPoint"/>
                    </mxGeometry>
                </mxCell>
                <mxCell id="rX7PMhzwUXEM9qm4jWY1-34" value="LCD顶层" style="rounded=0;whiteSpace=wrap;html=1;" parent="PQQZRL-Dx55m8A6esvLJ-10" vertex="1">
                    <mxGeometry x="440" y="160" width="80" height="40" as="geometry"/>
                </mxCell>
                <mxCell id="rX7PMhzwUXEM9qm4jWY1-35" value="" style="edgeStyle=none;html=1;fontFamily=Helvetica;fontSize=12;fontColor=default;" parent="PQQZRL-Dx55m8A6esvLJ-10" source="rX7PMhzwUXEM9qm4jWY1-14" target="rX7PMhzwUXEM9qm4jWY1-34" edge="1">
                    <mxGeometry relative="1" as="geometry"/>
                </mxCell>
                <mxCell id="rX7PMhzwUXEM9qm4jWY1-36" value="LCD" style="rounded=0;whiteSpace=wrap;html=1;fillColor=#d5e8d4;strokeColor=#82b366;" parent="PQQZRL-Dx55m8A6esvLJ-10" vertex="1">
                    <mxGeometry x="600" y="160" width="80" height="40" as="geometry"/>
                </mxCell>
                <mxCell id="rX7PMhzwUXEM9qm4jWY1-38" value="" style="endArrow=none;html=1;fontFamily=Helvetica;fontSize=12;fontColor=default;fillColor=#dae8fc;strokeColor=#6c8ebf;" parent="PQQZRL-Dx55m8A6esvLJ-10" edge="1">
                    <mxGeometry width="50" height="50" relative="1" as="geometry">
                        <mxPoint x="340" y="120" as="sourcePoint"/>
                        <mxPoint x="480" y="120" as="targetPoint"/>
                    </mxGeometry>
                </mxCell>
                <mxCell id="rX7PMhzwUXEM9qm4jWY1-39" value="" style="endArrow=classic;html=1;fontFamily=Helvetica;fontSize=12;fontColor=default;entryX=0.5;entryY=0;entryDx=0;entryDy=0;fillColor=#dae8fc;strokeColor=#6c8ebf;" parent="PQQZRL-Dx55m8A6esvLJ-10" target="rX7PMhzwUXEM9qm4jWY1-34" edge="1">
                    <mxGeometry width="50" height="50" relative="1" as="geometry">
                        <mxPoint x="480" y="120" as="sourcePoint"/>
                        <mxPoint x="550" y="30" as="targetPoint"/>
                    </mxGeometry>
                </mxCell>
                <mxCell id="rX7PMhzwUXEM9qm4jWY1-41" value="&lt;font style=&quot;font-size: 20px;&quot;&gt;FPGA&lt;/font&gt;" style="text;html=1;strokeColor=none;fillColor=none;align=center;verticalAlign=middle;whiteSpace=wrap;rounded=0;fontFamily=Helvetica;fontSize=12;fontColor=#004C99;" parent="PQQZRL-Dx55m8A6esvLJ-10" vertex="1">
                    <mxGeometry x="480" y="20" width="60" height="30" as="geometry"/>
                </mxCell>
                <mxCell id="rX7PMhzwUXEM9qm4jWY1-37" value="" style="edgeStyle=none;html=1;fontFamily=Helvetica;fontSize=12;fontColor=default;" parent="PQQZRL-Dx55m8A6esvLJ-10" source="rX7PMhzwUXEM9qm4jWY1-34" target="rX7PMhzwUXEM9qm4jWY1-36" edge="1">
                    <mxGeometry relative="1" as="geometry"/>
                </mxCell>
                <mxCell id="PQQZRL-Dx55m8A6esvLJ-3" value="图像处理" style="rounded=0;whiteSpace=wrap;html=1;" parent="PQQZRL-Dx55m8A6esvLJ-10" vertex="1">
                    <mxGeometry x="270" y="240" width="60" height="40" as="geometry"/>
                </mxCell>
                <mxCell id="PQQZRL-Dx55m8A6esvLJ-6" value="" style="endArrow=none;html=1;entryX=0.5;entryY=1;entryDx=0;entryDy=0;exitX=0.35;exitY=0.85;exitDx=0;exitDy=0;exitPerimeter=0;" parent="PQQZRL-Dx55m8A6esvLJ-10" source="rX7PMhzwUXEM9qm4jWY1-40" target="PQQZRL-Dx55m8A6esvLJ-3" edge="1">
                    <mxGeometry width="50" height="50" relative="1" as="geometry">
                        <mxPoint x="300" y="330" as="sourcePoint"/>
                        <mxPoint x="350" y="280" as="targetPoint"/>
                    </mxGeometry>
                </mxCell>
                <mxCell id="PQQZRL-Dx55m8A6esvLJ-8" value="" style="endArrow=none;html=1;exitX=1;exitY=0.5;exitDx=0;exitDy=0;" parent="PQQZRL-Dx55m8A6esvLJ-10" source="rX7PMhzwUXEM9qm4jWY1-2" edge="1">
                    <mxGeometry width="50" height="50" relative="1" as="geometry">
                        <mxPoint x="280" y="220" as="sourcePoint"/>
                        <mxPoint x="300" y="180" as="targetPoint"/>
                    </mxGeometry>
                </mxCell>
                <mxCell id="PQQZRL-Dx55m8A6esvLJ-9" value="" style="endArrow=classic;html=1;entryX=0.5;entryY=0;entryDx=0;entryDy=0;exitX=0.35;exitY=0.45;exitDx=0;exitDy=0;exitPerimeter=0;" parent="PQQZRL-Dx55m8A6esvLJ-10" source="rX7PMhzwUXEM9qm4jWY1-40" target="PQQZRL-Dx55m8A6esvLJ-3" edge="1">
                    <mxGeometry width="50" height="50" relative="1" as="geometry">
                        <mxPoint x="305" y="180" as="sourcePoint"/>
                        <mxPoint x="360" y="190" as="targetPoint"/>
                    </mxGeometry>
                </mxCell>
            </root>
        </mxGraphModel>
    </diagram>
    <diagram id="dSG_O6Fs3y2tUmx-Ykd9" name="OV5640驱动">
        <mxGraphModel dx="625" dy="579" grid="1" gridSize="10" guides="1" tooltips="1" connect="1" arrows="1" fold="1" page="1" pageScale="1" pageWidth="827" pageHeight="1169" math="0" shadow="0">
            <root>
                <mxCell id="0"/>
                <mxCell id="1" parent="0"/>
            </root>
        </mxGraphModel>
    </diagram>
</mxfile>